<svg xmlns="http://www.w3.org/2000/svg" viewBox="0 0 595.28 841.89"><defs><style>.cls-1{fill:#36a9e1;}.cls-2,.cls-6{fill:none;}.cls-2,.cls-3,.cls-4,.cls-5,.cls-6,.cls-7{stroke:#1d1d1b;stroke-miterlimit:10;}.cls-2,.cls-3,.cls-4{stroke-width:0.5px;}.cls-3,.cls-5{fill:#936037;}.cls-4{fill:#373232;}.cls-6,.cls-7{stroke-width:0.78px;}.cls-7,.cls-8{fill:#1d1d1b;}</style></defs><title>Plan de travail 1</title><g id="sourcils"><path class="cls-1" d="M235,398s-57-3.67-64.33,3.33-10.34,21-10.34,21,.17,32.81,2.34,39.67c12.66-3,27.66-5.33,27.66-5.33s.42,92.33-2.08,95.33,122.25-.25,122.25-.25S304,448.33,308,448.33s25,5,25,5,2.67-29.66,1.33-33-3.66-17.66-15.66-22c-14-1-57.34-.66-57.34-.66l-13,19Z"/><circle class="cls-1" cx="303.67" cy="259.33" r="7.33"/><circle class="cls-1" cx="332.33" cy="247.33" r="7.33"/><ellipse class="cls-1" cx="385" cy="197.33" rx="60.67" ry="43.33"/><path class="cls-2" d="M235,372.5c4.86,1.62-23.11-3.12-30.25-36.5"/><path class="cls-3" d="M232.17,372.17s8.16,7,2.83,26.08c13.67,19.42,13.33,18.42,13.33,18.42L258.67,402l-1-32Z"/><path class="cls-3" d="M201.75,312l5.75,1.5S198,258,239.5,261s40,15.5,43.5,55.5l-3.75,30.25s-5.25,19.5-11.5,22.75l-32.75,3c2.22.81-21.56-8.63-25.75-20.5C204.75,339.25,199.25,323,201.75,312Z"/><path class="cls-4" d="M207.5,313.5s-22.83-10.17-22.83-27.17S201,256.67,201,256.67s4.33-20.67,17.67-26,36.33-11,39-15,5.66-8.67,5.66-8.67,14.67,10.33,17,18.33,6.67,15.34,7,22.34-5,13.33-5,13.33,11,5.67,11.67,25.33c-3.33,19.34-12,19.34-12,19.34s1.33-41.34-26-43S201.67,263,207.5,313.5Z"/><path class="cls-5" d="M162.75,461.25s5.75,39.75,15.75,44,25.75-2.5,25.75-2.5l91-36-4.5-14.25s-83.75,25.25-93,17.5c-7.5-.5-7.25-12.5-7.75-22.25"/><path class="cls-5" d="M308,439.5l.67,9s0,.94,0,1.07c.27,2,.9,5.45,2.15,6.93,1.84,2.17-16.33-32.17-17.5-45.5s-3.33-34-4.5-35.17S287,355,287,355s2-11.33,3.67-13-7-5.83-11,3.17c-1.17,10.33-.34,12.5-1.67,16.5s-.83,6.16-8.83,7.33-37,3.17-37,3.17-7,0-6.5,4.33,15.5,3.67,23.5,3.17c-.17,5.83,2.16,6.5,2.66,6.5s-1.16,1.16-.66,3,3.33,3.66,3.33,3.66-3,4.84.83,6.5,13.84,5.34,13.84,5.34,22,38.83,21.66,48.33c3,11,15.34,57.5,23,51.5,9.5-1.83,16.5-22.83,19.5-50.67a200.2,200.2,0,0,1-21.5-4.66C308.51,448.16,307.9,440.58,308,439.5Z"/><path class="cls-5" d="M204.25,312.5s-20-6.5-18.5,10.25S206.25,336,206.25,336"/><path class="cls-5" d="M202.75,318.75s-9.25,1.75-1,6.75"/><path class="cls-5" d="M201.42,319.08s-9.59,3.34-1.34,8.34"/><path class="cls-6" d="M254.33,305.33l.17,27.17s2.33,5.83.17,7.67-7.17-1.17-8.84-3-2.66,2.66-2.66,2.66"/><path class="cls-6" d="M242,329.17s-10.33,1.33-1,10.33"/><path class="cls-6" d="M256.93,328.17s10.33,1.33,1,10.33"/><circle class="cls-7" cx="228.58" cy="310.42" r="3.92"/><circle class="cls-7" cx="267.25" cy="309.42" r="3.92"/><path class="cls-6" d="M252.5,344s10.83,11.17,11.67,9.83-6.17,3.84-6.17,3.84l7.67-.5-12.5,3.16"/><line class="cls-6" x1="263.83" y1="361.83" x2="260" y2="365.83"/><path class="cls-8" d="M213.33,298.17s9-10.34,30.84-2.84c0,0,2.5,3.17-.17,4.17s-8.5-4.5-13.67-3.17S221.67,295.83,213.33,298.17Z"/><path class="cls-8" d="M279,296s-6.25-10.33-21.43-2.83c0,0-1.74,3.16.12,4.16s5.91-4.5,9.5-3.16S273.21,293.67,279,296Z"/><path class="cls-8" d="M254,298a7.92,7.92,0,0,0-.5-5.42c-1.36-2.49-1.56-3.9-1-5.34"/><path class="cls-8" d="M251.36,285a7.9,7.9,0,0,0-2,5.06c.08,2.83-.38,4.18-1.52,5.21"/></g></svg>